<svg xmlns="http://www.w3.org/2000/svg" viewBox="0 0 378.55 55.19" class="reveal-logo">
  <title>surQuest</title>
  <g data-name="logo">
    <path fill="#F2F2F2" stroke-width="2" stroke="#F2F2F2" d="M25.23 42.93c0-.42-.81-9.32-12.65-10.24-3.58-.27-6.18-1.41-7.84-3.38a8.8 8.8 0 0 1-1.9-5.89c0-.33.39-8.09 9.7-8.09h.91c.44 0 .87.07 1.28.14h.26c.34.06.69.14 1.09.25l.26.08c.29.09.58.2.87.32l.32.14.18.08.22.1a7.8 7.8 0 0 1 2.88 2.63l.07.11h1.93l-.2-.37c-1.32-2.4-4.14-5.26-10.05-5.26-5.6 0-8.4 2.62-9.77 4.82a11.26 11.26 0 0 0-1.65 4.93 10.3 10.3 0 0 0 2.29 7.1c2 2.34 5 3.68 9 4l.57.07.46.06c.51.07 1 .15 1.5.25l.27.06c.4.09.81.21 1.23.34l.33.11c.34.12.68.25 1 .4l.35.16.2.09.26.12a9.6 9.6 0 0 1 3.3 2.87 8.5 8.5 0 0 1 1.59 4.17v.34a9.3 9.3 0 0 1-.06 1.63 9.5 9.5 0 0 1-.62 2.41A8.4 8.4 0 0 1 21.24 50 10.6 10.6 0 0 1 17 52.66a13.26 13.26 0 0 1-5.89.7 13 13 0 0 1-5.69-2 8.7 8.7 0 0 1-2.55-2.58 8.8 8.8 0 0 1-1.12-2.7v-.21H0l.08.41v.18a10.6 10.6 0 0 0 1.33 3.23 10.4 10.4 0 0 0 3 3.09 15 15 0 0 0 13.09 1.47 12.3 12.3 0 0 0 4.91-3.07 10.1 10.1 0 0 0 2-3.09 11.2 11.2 0 0 0 .73-2.84 11 11 0 0 0 .08-1.93c.04-.16.03-.32.01-.39m50.19-5.16a15.73 15.73 0 0 1-15.69 15.69A15.68 15.68 0 0 1 44 37.77V13.61h-1.63v24.16a17.34 17.34 0 0 0 17.36 17.37 17.34 17.34 0 0 0 17.34-17.37V13.61h-1.65Zm38.13-24.14a16.74 16.74 0 0 0-12.23 5.08 16.74 16.74 0 0 0-5.08 12.23v24.2h1.67V30.93a15.14 15.14 0 0 1 4.59-11.06 15.05 15.05 0 0 1 11-4.59 15.6 15.6 0 0 1 3.64.44l.31.07v-1.7h-.2a17.4 17.4 0 0 0-3.7-.46"/>
    <path fill="#e72d75" stroke-width="2" stroke="#e72d75"  d="m180 46.36.15-.16a27.57 27.57 0 1 0-20.41 8.94h.19a27.47 27.47 0 0 0 18.76-7.47l.16-.15 7.62 7.62h2.32Zm5.64-18.79a25.82 25.82 0 1 1-25.81-25.82 25.85 25.85 0 0 1 25.81 25.82"/>
    <path fill="#F2F2F2"  stroke-width="2" stroke="#F2F2F2"  d="M238.25 37.68a15.65 15.65 0 1 1-31.31 0V13.57h-1.67v24.11a17.31 17.31 0 1 0 34.63 0V13.57h-1.65Zm53.4-18.59a20.63 20.63 0 0 0-28.62.62A20 20 0 0 0 257 34.33a20 20 0 0 0 6 14.62 20.58 20.58 0 0 0 26.6 2.24 20.45 20.45 0 0 0 6.93-8.52l.15-.35h-1.83l-.07.14a19 19 0 0 1-17.13 10.86 18.93 18.93 0 0 1-18.93-17.87v-.71h39.66v-.46c0-.49 0-1.15-.11-1.86a20.1 20.1 0 0 0-6.62-13.33m5 13.94h-37.93l.08-.74a19 19 0 0 1 37.75 0Zm42.35 9.9c0-.4-.84-9.32-12.65-10.24-3.55-.27-6.19-1.41-7.85-3.38a8.86 8.86 0 0 1-1.9-5.89c0-.33.41-8.09 9.7-8.09h.91c.44 0 .87.07 1.28.14h.26c.34.06.69.14 1.09.25l.26.08c.29.09.57.19.87.32l.32.14.18.08.22.1a7.8 7.8 0 0 1 2.88 2.63l.07.11h1.92l-.2-.37c-1.32-2.4-4.13-5.26-10-5.26-5.6 0-8.4 2.62-9.77 4.82a11.3 11.3 0 0 0-1.63 4.86 10.3 10.3 0 0 0 2.29 7.09c2 2.34 5 3.68 9 4l.57.07.46.06c.51.07 1 .15 1.5.25l.27.06c.4.09.81.21 1.21.33l.34.11c.34.12.68.25 1 .4l.35.16.2.09.26.12a9.6 9.6 0 0 1 3.3 2.87 8.45 8.45 0 0 1 1.59 4.17v.34a9 9 0 0 1-.06 1.63 9.6 9.6 0 0 1-.62 2.41A8.4 8.4 0 0 1 335 50a10.6 10.6 0 0 1-4.24 2.63 13.2 13.2 0 0 1-5.89.7 13 13 0 0 1-5.69-2 8.7 8.7 0 0 1-2.54-2.58A9 9 0 0 1 315.5 46l-.06-.17h-1.71l.08.4a2 2 0 0 0 0 .19 10.5 10.5 0 0 0 1.33 3.23 10.4 10.4 0 0 0 3 3.1 15 15 0 0 0 13.09 1.47 12.3 12.3 0 0 0 4.91-3.07 10 10 0 0 0 2-3.09 11.2 11.2 0 0 0 .73-2.84 11 11 0 0 0 .08-1.93c.05-.13.05-.29.05-.36m39.17 8.43a13.05 13.05 0 0 1-20.24-10.88V17.82h10.87v-1.68h-10.88v-7h-1.7v31.34a14.79 14.79 0 0 0 22.21 12.71l.12-.07v-2Z"/>
  </g>
</svg>
